<?xml version="1.0" encoding="UTF-8"?>
<svg id="Layer_2" data-name="Layer 2" xmlns="http://www.w3.org/2000/svg" viewBox="0 0 500 197.1">
  <defs>
    <style>
      .cls-1 {
        fill: #221f20;
        stroke-width: 0px;
      }
    </style>
  </defs>
  <path class="cls-1" d="m229.01,47.47c-.03-.22-.06-.44-.1-.66m-1.1,1.44l21.24-.19c-.05.52-.13,1.09-.14,1.67-.2,8.13-.35,16.25-.61,24.38-.04,1.12-.59,2.21-1.01,3.65h18.82c-.39,2.38.92,2.51,2.34,2.48,8.2-.13,16.4-.2,24.6-.41,6.22-.16,12.44-.53,18.66-.75,1.54-.05,2.32-.57,2.23-2.22-.08-1.43-.02-2.87-.02-4.3.18,0,.36,0,.53,0,0,.53-.02,1.07,0,1.6.17,5.15-1.01,4.87,4.76,4.77,1.15-.02,2.33.03,3.45.26.95.19,1.83.93,2.76.98,2.19.12,4.4.07,6.58-.12.91-.08,2.39.75,2.64-1.08.22.18.45.37.73.59.39-1.75.78-3.47,1.04-4.65-1.09.42-2.22,1.17-3.35,1.18-.61,0-1.26-1.25-1.81-2-.24-.33-.27-.83-.39-1.25,2.17,1.15,3.77-.68,5.7-1.1-1.32-.49-2.61-.51-3.9-.62-1.37-.11-1.93.44-1.63,1.8-.12-.7-.24-1.39-.4-2.32h6.47c.35,2.69.33,2.62,2.89,2.13.62-.12,1.37.43,1.65.53,2.45-1.65,5.21-.67,7.62-1.08,1.74-.29,2.91,1.61,3.23,4.1.57-2.55.99-4.45,1.41-6.35h0c.61.14,1.21.28,1.9.43,0-.45,0-1.03,0-1.61,2.31,0,4.63,0,7.16,0,.03-.68.07-1.43.11-2.19-2.01,0-3.81.04-5.62-.01-1.71-.05-2.33.59-1.6,2.24-.55-.46-1.85-4.61-1.49-4.99.27-.28.73-.51,1.11-.53,3.72-.16,7.43-.31,11.15-.38,3.75-.08,3.78-.07,3.5-3.41-1.61-.66-3.08-1.27-4.56-1.88.06-.16.13-.33.19-.49h9.43l.07.34c-1.32.56-2.64,1.12-4.07,1.73,0,.3,0,.66,0,1.02,0,2.64.66,3.01,3.18,2.44,1.37-.31,2.88-.06,4.32-.06q-3.5,1.65-3.29,5.47h13.38c-.11,1.93-.22,3.92-.33,5.86-1.02.15-1.72.26-2.52.38v2.91c1.22,0,2.32.06,3.4,0,13.64-.91,27.27-1.89,40.91-2.73,2.24-.14,2.21-1.36,2.08-2.9-.21-2.59-.22-2.59,1.74-2.56-.23,1.43-.48,2.93-.73,4.51h3.01c-.6.79-1.09,1.45-1.6,2.11-3.74-1.87-6.96-.08-10.5,1.38,3.7-.5,7.13-.96,10.55-1.42-1.72,1.03-1.39,2.76-1.38,4.32.03,5.76.07,11.51.23,17.27.04,1.66-.28,2.56-2.15,2.25-.36-.06-1.11.17-1.11.28-.07,1.97-.05,3.95-.05,5.93.33.02.66.03.98.05.1-1.85.19-3.69.29-5.6h1.81q.51,5.19-3.76,6.65v-8.27c2.61.64,2.75-.81,2.69-2.76-.14-4.97-.12-9.95-.16-14.92q-.03-3.27-3-3.22v28.68s0,0,0,0c-1.07.19-2.14.38-3.35.59.32,1.91.64,3.85.97,5.79-.1.03-.19.07-.29.1-.35-.65-.69-1.3-1.04-1.95-.13.04-.25.08-.38.12.18.78.36,1.56.57,2.47-.83.16-1.58.3-2.08.39,1.69.28,3.58.59,5.69.94-.34.45-.74.97-1.01,1.32,1.16.48,2.4,1,3.63,1.52.33-1.65.64-3.19.95-4.73h.79c.16,1.98.31,3.96.47,5.93,4.66-.29,5.25-.97,4.83-2.95.58-.72,1.24-1.19,1.19-1.56-.08-.54-.62-1.37-1.06-1.44-1.2-.2-2.46-.07-3.69-.07,1.5-.37,3.55.09,4.35-.71.81-.81.53-2.86.47-4.35-.06-1.48.16-2.44,1.9-2.4,1.47.03,1.8-.82,1.68-2.15-.12-1.3-.03-2.62-.03-3.93.79,6.39,1,12.8,2.13,19.09h-4.15c1.88-1.64,3.8-2.9,2.51-5.41-.96-.05-1.83-.09-2.71-.13,0-.1,0-.2,0-.3.89-.07,1.79-.15,2.89-.24-.17-2.28-.32-4.35-.47-6.43h-3.16v12.93c-1.56.2-2.82.36-4.08.52.03.21.06.43.1.64,6.29-.6,12.57-1.19,18.88-1.79,0,5.07.09,10.1-.09,15.11-.03.92-1.03,1.98-1.85,2.66-.65.53-1.73.52-2.58.85-.63.24-1.2.64-1.94,1.06,1.69.37,3.28.71,4.87,1.06-4.62.84-9.24,1.24-13.85,1.6-.5.04-1.01-.2-1.52-.21-1.92-.03-3.83-.01-5.74-.01-.29-.16-.7-.57-1.13-.6-2.39-.19-4.8-.52-7.17-.36-2.15.15-4.25.89-6.46,1.38,1.01,1.55.51,2.49-.77,2.94-.94.33-2,.28-3,.48-.27.05-.47.41-.71.63.12.21.25.42.37.63-1.19.1-3.02.72-3.46.19-1.82-2.19-4.35-1.39-6.33-1.48-4.76-.21-9.55.41-14.33.74-1.11.08-2.21.38-3.35.59.15-.46.31-.96.45-1.38-1.12-.27-2.07-.68-3.03-.69-2.13-.04-4.38-.4-6.06,1.56-.97,1.12-5.51,1.52-6.68.82,1.18-.43,2.48-.91,3.78-1.38-.09-.25-.17-.49-.26-.74-2.66.8-5.33,1.61-7.99,2.41l-.14-.47c.45-.1.9-.2,1.97-.44-3.99-.84-7.3-1.26-10.49.86.26-.51.52-1.01.8-1.56h-4.33c.2-.38.4-.76.58-1.1-1.91.2-3.85.46-5.79.57-.48.03-.99-.46-1.49-.71.53-.24,1.05-.65,1.59-.68,1.53-.09,3.07-.03,4.61-.03,0-.23-.02-.46-.03-.69-4.07.25-8.17.89-12.21.65-4.19-.25-8.22,1.23-12.47.67.25-.33.44-.58.8-1.05-2.4.12-4.59.23-6.77.34,0,.16.01.33.02.49,1.64.32,3.28.64,4.92.96-.04.18-.08.37-.12.55-4.72-.5-9.44-1.09-14.18-1.45-1.42-.11-2.9.61-4.35.58-1.73-.03-3.44-.61-5.17-.68-2.93-.12-5.88-.03-8.82-.03-.26.2-.49-.36-.87-.51-4.38-1.72-8.95-1.74-13.51-1.17-3.65.45-7.23,2-10.91.13-.29-.14-.87.37-1.34.5-1.05.28-2.11.59-3.19.74-1.77.24-3.17-1.13-5.43-.18-2.82,1.19-6.37.64-9.78.85.38-.58.6-.91,1.04-1.59-1.22.4-2.58.47-2.75.96-1.17,3.41-3.22.84-4.84.96.93-.21,1.99.05,2.82-.28.8-.31,1.36-1.23,2.04-1.89h-15.93s0,.07,0,.1c.72.07,1.45.14,2.36.23-.29.4-.38.61-.45.6-1.1-.12-2.19-.4-3.28-.37-1.75.05-3.49.29-5.23.45-.26-.25-.51-.7-.77-.71-4.83-.18-9.68-.49-14.52.8.43.14.87.28,1.3.42-2.84-.02-5.68.06-8.51-.08-2.24-.11-4.47-.73-6.69-.66-3.04.09-6.06.63-9.1.97,0-.14,0-.28,0-.42,1.79-.79,3.58-1.58,5.8-2.56-1.06.09-1.7.15-2.33.19-2.1.13-3.72,1.67-6.11,1.39-4.24-.49-8.56-.31-12.84-.31-4.21,0-8.41.15-12.62.23-1.23.02-2.47.16-3.68,0-1.14-.15-2.23-.62-3.35-.95l-.17.57c.25.16.5.32.82.52-1.21.07-2.33.14-3.99.24.78.48,1.06.65,1.34.82-.15.2-.29.4-.44.61-.87-.56-1.73-1.11-2.19-1.41-2.39.49-4.63,1.14-6.91,1.36-2.38.23-4.8.05-6.88.05.1-.04.56-.24,1.02-.44-.08-.21-.15-.42-.23-.63-1.34.38-2.69,1.11-4.02,1.08-3.19-.07-6.36-.68-9.54-.74-6.22-.11-12.44-.03-18.66.05-6.92.08-13.81,1.38-20.75.31-1.92-.3-3.9-.14-5.86-.18-2.05-.04-4.12.08-6.16-.14-1.71-.19-3.74.21-5.14-1.92,2.35.34,4.51,1.68,6.45-.24-7.73-.61-15.47-1.22-23.4-1.85.88-1.59-.13-1.9-1.32-2.16-.96-.21-1.9-.5-2.85-.76,1.12-.2,2.15-.05,3.11-.26.48-.1,1.17-.86,1.16-1.32-.03-3.8-.2-7.6-.34-11.4-.11-3.02-.13-3.13,2.74-3.26,1.82-.08,2.37-.8,2.38-2.55.04-5.05.22-10.1.4-15.14.03-.76.37-1.51.56-2.26l-.06-.05c.18,1.47.45,2.93.51,4.41.08,1.89-.14,3.79.01,5.67.07.89.71,1.73,1.09,2.6.24-.07.48-.14.72-.21.13-1.04.26-2.07.39-3.11-.54,3.4,1,5.72,3.61,7.58.28.2.42.59.62.89-2.04-1.51-4.09-3.01-6.14-4.53-1.32,3.44-.8,6.17,1.29,6.41.14-1.12.28-2.24.42-3.37l.33.06c.11,1.55.21,3.1.31,4.61h2.88c-.04-.76-.07-1.38-.09-1.87.7-.26,1.29-.48,1.88-.7,1.13.28,2.26.56,3.39.84.15-.22.29-.44.44-.66-.3-.61-.6-1.22-.69-1.42.71-1.84,1.38-3.6,2.06-5.37l-.56-.21c-.13.55-.25,1.11-.4,1.78-.91-1.15.34-3.21-1.43-3.37,2.14-1.6.93-4.18,1.15-6.35.04-.4-.63-.87-.97-1.31.43-.15,1.93-.27.07-1.6.77-.12,1.3-.2,1.82-.28l-.12-.56c-.8.25-1.81.27-2.37.78-1.15,1.07-1.66.62-2.35-.57,1.75-.63,3.31-1.18,5.38-1.92,0-5.86.08-12-.08-18.13-.03-1.12-1.04-2.21-1.6-3.33h3.85c-.22-2.31-.41-4.31-.58-6.07.9.61,1.59,1.08,2.06,1.4-.29,1-.87,2-.8,2.96.16,2.28,2.12,2.06,3.66,2.17,11.69.8,23.38,1.55,35.07,2.32,1.53.1,3.07.29,4.6.3.39,0,.79-.54,1.19-.84-.4-.3-.76-.79-1.19-.85-.92-.13-1.87-.04-3.01-.04-.06-1.32-.14-2.47-.16-3.62-.05-3.26-.04-3.28,3.31-3.31,3.19-.03,6.38,0,9.97,0-.27-2.24-.47-3.93-.62-5.18h27.29c-.14,2.22-.33,4.49-.4,6.75-.07,2.3-.02,4.61-.02,6.98-.72.18-1.59.4-2.46.62.02.12.05.23.07.35,2.22-.11,4.44-.21,7.13-.34,1.47,1.74,3.98.51,6.27.46.38,0,.73-1.27,1.26-2.27-.91.21-1.27.29-2,.46.66-.86,1.07-1.38,1.59-2.07-1.94-.63-3.71.6-5.64-.87-1.53-1.17-1.35-2.49-1.97-3.73.99-.47,1.96-1.29,2.98-1.35,2.99-.18,5.99-.08,8.99-.04,1.2.02,1.73-.48,1.79-1.67.06-1,.27-1.99.41-2.99.12.02.25.04.37.07v4.44c3,0,5.91.07,8.81-.07.48-.02,1.15-.9,1.31-1.5.28-1.06.23-2.21.34-3.48,1.89,1.08,3.76,1.69,4.96,2.95,1.18,1.23,1.69,3.11,2.57,4.87-.32-2.14-.63-4.22-.92-6.18,1.46-.73,3.01-1.51,4.7-2.36v8.53c-.64-.27-.98-.41-1.51-.63.05,1.82.63,2.52,2.37,2.48,3.87-.08,7.75.11,11.63.12,1.26,0,2.52-.23,3.79-.36-.18.27-.43.65-.72,1.1,1.88-.25,3.6-.59,5.33-.67,4.65-.21,9.3-.42,13.95-.38.94,0,1.86,1.11,2.89,1.77.88-.75,1.53-24.46.52-28.13m142.46,39.57c-.28-.95-.56-1.91-.9-3.06-1.22,2.03-1.19,4.85.04,8.17.32-1.9.6-3.54.88-5.19-.26,4.84-.52,9.69-.78,14.53.94-3.45,4.42-.52,5.45-2.01-.18-1.37-.42-2.36-.42-3.36-.04-4.75-.02-9.51-.02-14.26h-.32c-.32,5.53-.63,11.07-.95,16.6-.23,0-.46,0-.69-.01-.1-1.09-.2-2.19-.3-3.28-.29.95-.27,1.91-.49,2.81-.11.44-.66.77-1.01,1.16-.14-.48-.4-.95-.41-1.43-.06-3.56-.07-7.12-.1-10.67Zm69.04,39.66l.04.05c-1.35,1.02-4.05.57-3.77,3.94,2.1-.37,4.08-.77,6.09-1.06.76-.11,1.82-.3,2.3.09,1.9,1.54,4.08.37,6.07.84.28.07.74-.62,1.12-.96-.33-.3-.67-.88-.99-.87-1.38.07-2.76.3-4.32.5-.17-.21-.6-.76-1.31-1.64h5.75c-.98-1.69-3.65-.02-4.39-2.6,1.62-.11,3.03-.21,4.44-.3-4.27-1.1-5.4-.97-6.57.12.14,1.53.25,2.66.37,3.99-1.11-.06-1.82-.1-2.71-.14.75-.66,1.22-1.08,1.38-1.22-.55-.11-1.06-.2-1.56-.31-.65-.14-1.3-.3-1.95-.44Zm-370.64-17.96c-.2-1.64-.36-3.3-.62-4.93-.06-.4-.45-.75-.69-1.12-.25.37-.69.73-.72,1.11-.07,1.15.07,2.31.03,3.46-.14,3.81-.34,7.62-.49,11.44,0,.24.19.49.27.7,2.12-.29,1.54-1.84,1.64-3.06.2-2.55.42-5.11.64-7.66.52,1,1.04,2,1.62,3.11.31-.17.85-.47,1.31-.73-.48-.51-.89-.94-1.3-1.38.1-.18.19-.35.29-.53.72.13,1.7.02,2.1.45.49.52.81,1.58.63,2.26-.71,2.66-1.64,5.26-2.48,7.85,1.75.74,3.41,1.91,5.17,2.1,6.03.64,12.1,1.02,18.16,1.33,7.25.36,14.52.54,21.77.81,5.99.22,11.98.46,17.98.65.67.02,1.35-.26,2.03-.4-.02-.23-.03-.45-.05-.68-2.19-.11-4.38-.22-6.56-.32.02-.13.03-.25.05-.38,7.82.24,15.64.49,23.45.73,0,.17,0,.34,0,.51h-13.33v.67c.69.08,1.38.22,2.08.24,2.49.07,4.98.09,7.46.16,9.14.28,18.29.59,27.43.84,1.07.03,2.14-.23,3.22-.33,1.53-.14,3.06-.38,4.58-.33,1.71.05,3.41.49,5.12.54,1.17.03,2.36-.53,3.52-.45,2.14.14,4.26.58,6.4.8.46.05.95-.33,1.43-.52-.01-.2-.03-.4-.04-.6-1.08-.21-2.16-.42-3.34-.65h14.34s0,.05,0,.08c-3.05.18-6.11.36-9.16.53,0,.27,0,.54,0,.81.76.13,1.51.35,2.27.37,3.77.11,7.55.21,11.32.22,8.42.02,16.84.06,25.26-.05,3.86-.05,7.72-.6,11.59-.67,4.09-.08,8.19.28,12.28.2,13.97-.27,27.94-.61,41.91-.99,3.35-.09,6.7-.44,10.05-.66l-.06.04c.28-.07.72-.05.82-.23,1.32-2.2,3.3-1.77,5.34-1.52,1.46.18,2.95.15,4.43.08,1.38-.07,2.75-.41,4.13-.47,4.96-.24,9.92-.41,14.88-.61-.13.3-.26.86-.4.86-1.57.03-3.16.06-4.73-.06-5.29-.41-10.47.16-15.77,1.58,3.07,0,5.92.08,8.76-.02,3.8-.14,7.6-.41,11.4-.69.49-.04.94-.48,1.41-.74-.24-.3-.49-.59-.73-.89,1.43-.54,2.48-.49,2.1,1.74,25.18-1.43,50.13-2.86,75.09-4.28,0-.27.01-.54.02-.81-.52-.2-1.08-.62-1.57-.56-2.09.29-4.45-1.13-4.68-3.21-.43-3.93-.69-7.88-.95-11.83-.05-.84.21-1.7.33-2.66h3.51v9.67c.41-.84.99-1.99,1.54-3.16.02-.04-.37-.21-.37-.32-.02-1.77-.2-3.58.11-5.3.12-.66,1.4-1.11,2.48-1.91,1.25-6.83-1.1-14.43,1.79-21.81-3.34.18-6.47.3-9.59.6-.43.04-.76,1.04-1.14,1.59.2.13.4.27.6.4.34-.3.69-.61.94-.83-.12,1.89-.35,3.7-.33,5.51.02,1.99.46,3.98.39,5.95-.07,2.29-.52,4.56-.75,6.85-.32,3.19-.29,3.24-3.48,3.52-5.89.52-11.78,1.05-17.68,1.44-8.1.53-16.2.93-24.3,1.41-.76.04-1.5.27-2.26.4.02.16.04.32.06.48,15.78-.99,31.56-1.97,47.43-2.96v7.66c-.06,0-.11,0-.17,0-.21-2.21-.43-4.42-.62-6.42-3.21,0-6.22-.14-9.22.02-11.48.61-22.96,1.29-34.43,2.04-.62.04-1.19.89-1.79,1.35-.1.08-.25.08-.31.1-.33-.42-.64-.81-.93-1.18-2.67,2.57-.44,5.75-1.52,8.45-.39-.91-.45-1.82-.59-2.71-.08-.47-.32-1.3-.48-1.3-2.81.01-2.9-2.12-3.18-4.48-2.19.36-4.19.91-6.21.97-6.12.18-12.24.18-18.36.25-.66,0-1.32.06-1.97.1l.03.32h2.52s0,.08,0,.11h-10.3s0,.1-.01.15l2.79.18s-.02.07-.03.1h-4.87c-.01-.26-.03-.53-.04-.79,6.14-.94,12.39-.6,18.57-1.02,6.3-.43,12.61-.56,18.92-.82-.01-.23-.02-.46-.03-.69-4.29.2-8.58.44-12.87.55-.88.02-1.77-.44-2.3-.59.29-1.7.66-2.89.66-4.07-.04-5.2-.21-10.39-.29-15.59-.02-1.62-.77-2.16-2.34-2.1-5.22.21-10.45.3-15.67.5-21.01.81-42,2.13-63.01,2.36-31.5.34-63,0-94.5-.2-11.06-.07-22.11-.57-33.17-.92-1.64-.05-2.39.33-2.32,2.17.16,4.17.11,8.35.16,12.52.05,4.59.04,4.61-4.57,4.14-.14-.01-.26-.12-.87-.4,0-2.76-.13-5.75.04-8.72.15-2.73-.5-5.14-2.38-7.73.48,6.21.93,12.01,1.41,18.09h6.17c.07.29.14.59.21.88-1.02.34-2.07,1.02-3.07.96-5.48-.34-10.95-.87-16.42-1.33,2.08.66,4.23,1.57,6.43,1.72,5.46.37,10.94.36,16.41.57,9.44.36,18.87.89,28.31,1.12,8.79.22,17.58.21,26.37.17,27.25-.1,54.5-.14,81.75-.44,14.06-.15,28.11-.79,42.17-1.2,1.1-.03,2.2,0,3.3,0,0,.23,0,.47,0,.7-6.62,1.55-13.39.14-20.07.8h4.29c0,.25,0,.51,0,.76h-139.6c0,.05,0,.11,0,.16h11.19c0-.08,0-.15,0-.23h-24.78c0-.07,0-.15,0-.22h7.63c0-.18,0-.35,0-.53h-28.69s0-.1,0-.15c1.12-.07,2.23-.15,3.35-.22-9.52-.59-19.02-.92-28.52-1.29-1.08-.04-2.15-.32-3.23-.48l-.06.04h13.26c-.14-1.49-.35-2.89-.39-4.3-.09-3.01-.08-6.02-.12-9.04h0c3.53.17,1.64,3.29,2.97,5.36.58-.73,1.44-1.3,1.46-1.89.1-3.73.05-7.46-.03-11.19-.01-.48-.43-1.33-.72-1.36-1.75-.18-3.67-.62-5.27-.13-4.81,1.48-9.5.26-14.22-.14-3.57-.3-7.12-.88-10.87-1.36-.07,1.48-.15,2.41-.15,3.35-.01,5.21.03,10.42-.01,15.63-.02,3.23-.77,3.77-4.03,3.09-.18-.76-.36-1.52-.52-2.16-1.5-.15-2.85-.29-4.72-.48,1.47-.25,2.37-.4,3.8-.64-.65-2.43-1.73-4.59-1.7-6.74.05-4.02.75-8.04,1.19-12.15-2.85-.21-5.89-.44-9.54-.71,1.38,4.41-2.01,9.54,3.47,12.68.47.27.72,1.1.87,1.72.5,2.03.92,4.09,1.36,6.14.14.66.24,1.32.4,2.28-2.79-.16-5.25-.31-8.12-.48v-8.84c-1.34,2.63.85,5.74-1.41,8.24,1.72,2.26,4.64,1.15,7.16,1.7-2.04.16-4.39-.63-5.38,2.31-.21-.62-.32-.97-.44-1.32-.16.06-.31.11-.47.17.37,1.08.74,2.16,1.21,3.54-1.76-.09-3.52-.18-5.28-.27Zm94.04,26.27c.03-.1.06-.2.08-.3-1,0-2.01.06-3-.03-.35-.03-.77-.36-.95-.67-.1-.16.17-.69.42-.88.66-.51,5.26-.26,5.79.44,1.48,1.95,3.28,2.27,5.69,2.22,7.72-.19,15.45,0,23.18.03.36,0,.73-.08,1.08-.16,1.95-.43,3.9-1.03,5.68.58.25.23.84.14,1.26.11,3.54-.28,7.08-.8,10.62-.82,8.26-.05,16.53.17,24.79.17.84,0,1.86-.58,2.47-1.2,1.54-1.55,3.57-1.59,5.26-.12.72.63,1.8,1.16,2.73,1.17,6.12.07,12.24,0,18.36-.04,4.6-.04,9.21-.13,13.81-.19,14.81-.19,29.62-.41,44.43-.53,5.63-.05,11.26.16,16.89.15,2.04,0,4.09-.23,6.12-.48,1.26-.16,2.18-.73,1.95-2.34-.11-.76.24-1.58.33-2.38.25-2.04-.48-2.89-2.54-2.82-1.83.06-3.65.26-5.48.33-10.68.44-21.35.88-32.03,1.29-5.26.2-10.51.34-15.77.47-7.07.17-14.13.25-21.2.47-4.6.14-9.13.92-13.81.53-5.31-.45-10.68-.08-16.03-.02-1.05.01-2.35-.59-2.99.95-.07.17-.79.17-1.18.09-1.37-.29-2.73-.92-4.1-.94-8.78-.1-17.57-.03-26.35-.1-10.1-.07-20.19-.19-30.29-.36-5.25-.09-10.5-.41-15.76-.5-7.32-.12-14.63-.06-21.95-.23-1.73-.04-3.28-.24-3.79,1.29-1.1-.47-1.99-1.13-2.92-1.19-7.58-.51-15.16-.98-22.74-1.32-5.1-.23-10.21-.21-15.32-.32-.73-.02-1.46-.2-2.18-.15-.58.04-1.15.32-1.72.5.35.51.59,1.23,1.07,1.48.88.46,1.89.75,2.88.92,3.09.54,6.21.94,9.29,1.53.69.13,1.28.81,1.91,1.24.99.3,2.24.19,3.47.32,4.7.49,9.39,1.13,14.09,1.55,3.05.27,6.12.29,9.19.36.53.01,1.07-.33,1.6-.51-.18-.32-.36-.64-.64-1.14.89.14,2-.03,2.38.42,2.03,2.38,4.68,1.68,7.16,1.63,3.35-.07,6.69-.37,10.04-.46,2.91-.08,5.81-.02,8.72-.02Zm247.84-38.96c0-5.94.04-11.12-.06-16.29,0-.44-.95-1.24-1.43-1.22-3.36.17-6.73.37-10.06.82-5.13.7-10.21,1.74-15.35,2.38-1.66.21-2.52.84-2.56,2.33-.11,3.28-.03,6.58-.03,9.43,1.21.55,2.46.72,2.84,1.39.65,1.13,1.36,1.31,2.47,1.2.87-.09,1.77.06,2.63-.04,1.61-.19,3.5.75,4.77-1.19.15-.23,1.49.26,2.25.5.42.14.78.66,1.17.67,4.38.05,8.75.03,13.37.03Zm-.92,27.85c-6.58.3-12.77.51-18.95.87-7.22.42-14.44,1.03-21.66,1.43-5.47.3-10.96.43-16.44.56-2.09.05-2.48,1.16-2.14,2.88.33,1.62.71,3.24,1.16,5.24,6.23-.27,12.55-.55,18.87-.83,0-.13,0-.26,0-.4h-10.48c2.35-.67,4.66-1.37,6.97-1.39,2.14-.02,4.03-.23,5.78-1.52,1.08-.79,1.99-.62,2.65.9-1.71.35-3.26.67-4.81.99.04.18.09.35.13.53,1.94.27,3.87.53,5.81.8-.1-.28-.21-.56-.31-.84,1.12-.84,2.23-1.68,3.36-2.54-.24-.15-.59-.38-1.35-.87,1.81,0,3.11,0,4.41,0,1.94-.01,3.95.25,5.81-.15,1.48-.31,2.69-1.73,4.41-.48.38.27,1.39.07,1.86-.27,1.84-1.33,4.58.38,6.13-1.85.06-.08.56.24.81.19,2.69-.6,5.95.38,7.99-3.23Zm17.59-46.26c-1.9,2.33-2.94,17.91-2.01,27.29.01.11.16.22.34.44.54-.06,1.16-.13,1.67-.19v-27.54Zm-31.23,21.08c4.68,3.34,9.62.9,14.45,1.42v-3.63h-13.7c-.28.81-.49,1.43-.75,2.21Zm-325.95-18.51v14.14c1.12-.79,2.67-1.34,2.73-2.02.18-2.18.66-4,1.85-5.95.83-1.36.16-3.64.16-5.53-1.62-.22-3.05-.41-4.74-.63Zm307.77,17.41c1.72.49,2.53-.21,2.55-1.79.04-4.52.01-9.04.01-13.64-.99-.14-1.68-.24-2.56-.36v15.79Zm-26.58-7.13c-.09,0-.17,0-.26,0-.1,2.15-.1,4.31-.33,6.45-.52,4.71-.39,4.92,4.25,4.74.13,0,.25-.12.43-.21v-17.19c-.27,0-.55-.02-.82-.03-.21,5.4-.43,10.81-.65,16.35-.89.06-1.65.11-2.61.18v-10.28Zm-115.23-28.23c1.88-.69,3.93-1.1,5.57-2.16.94-.61,1.67-2.28,1.66-3.46-.04-2.44-3.22-4.11-6.88-3.97-3.65.14-6.23,1.9-6.44,4.4-.25,2.95,2.03,4.79,6.1,5.19Zm-87.59,3.82c-1.63.3-3.37-.25-3.41,2.07-.05,2.84-.18,5.68-.22,8.52-.02,1.49.69,1.69,1.98,1.11,2.15-.96,2.12-2.65,1.79-4.66-.45.47-.81.85-1.51,1.59v-5.75c.36.58.78,1.28,1.21,1.98.16-.05.32-.1.48-.15-.1-1.48-.2-2.96-.32-4.71Zm238.3,35.28c2.05-.87,3.89-1.59,5.67-2.45.31-.15.58-.94.46-1.28-.15-.42-.72-.94-1.14-.97-1.6-.11-3.22-.07-4.83-.02-1.8.05-3.38,1.55-2.95,3.17.17.66,1.66.96,2.78,1.55Zm-40.15-22.85c.88-.11,1.44-.24,1.99-.24,3.62,0,7.24.07,10.86-.03.55-.01,1.07-.78,1.61-1.2-.12-.2-.23-.39-.35-.59-4.19-.17-8.61,1.42-12.03-1.52-.71,1.22-1.31,2.26-2.08,3.59Zm-259.03,22.06c.3,0,.59,0,.89,0v-3.98l.15.02c.2.96.41,1.93.61,2.89.21-.05.41-.11.62-.16v-17.06c-.19,0-.38,0-.57,0v5.47c-.15,0-.3,0-.45,0v-4.67c-.15,0-.31.01-.46.02v7.53c.13,0,.27,0,.4-.01.19-.42.39-.85.79-1.73v8.96s-.05,0-.07,0c-.15-2.08-.3-4.17-.45-6.25-.2.01-.4.03-.6.04-.29,2.98-.57,5.96-.86,8.94Zm288.18-22.55c2-.49,3.7-1.22,5.41-1.24,2.73-.04,2.64-1.5,2.31-3.39-1.58,0-3.17-.29-4.56.1-1.03.29-1.81,1.47-2.69,2.26-.16-.12-.31-.24-.47-.36v2.64Zm-13.02-1.8c-.18.28-.35.55-.53.83.47.34.93.96,1.4.96,2.99.03,5.99,0,8.98-.18.58-.03,1.11-.8,1.67-1.23-.13-.13-.26-.26-.39-.39h-11.12Zm-228.18-.36c1.74,1.79,3.96.96,5.94,1.16.38.04.85-.77,1.27-1.18-.08-.1-.17-.2-.25-.3-.41.37-.81.74-1.29,1.17-1.83-4.07-1.35-7.85.95-8.6-1.8-.55-2.55.17-2.54,1.99,0,1.11-.14,2.22-.24,3.68-.51-.6-.72-.86-1.3-1.54.81,2.72-.65,3.22-2.54,3.62Zm304.39,47.25c0-.23,0-.46,0-.7-2.73-.61-5.46-1.21-8.18-1.82,3.58.85.57,2.68.48,4.38,2.73-.66,5.22-1.26,7.7-1.86Zm-264.94-47.63v3.2h4.99c.12-1.36.24-2.65.32-3.58-1.91.14-3.48.25-5.31.38Zm241.11,2.65c-.27-.09-.53-.18-.8-.27-.2.55-.58,1.1-.57,1.65.03,2.99.16,5.98.22,8.97.03,1.36.05,2.73-.08,4.08-.17,1.69-.5,3.36-.76,5.04.34.03.69.06,1.03.09.32-6.52.64-13.04.96-19.55Zm26.95,45.32c2.48-1.54,4.55-2.83,6.62-4.11-1.71-.16-3.23-.04-4.72.19-.88.14-2.24.22-2.48.75-.31.68.27,1.77.58,3.18Zm-357-23.54c.27,0,.53,0,.8.01v-16.67c-.27,0-.53,0-.8,0v16.66Zm251.08-22.92c.86,1.26,6.14,1.59,8.65.35-.1-.19-.14-.43-.29-.55-1.31-1.08-5.47-.98-6.88.04-.34.25-.96.11-1.47.16Zm-214.03-.27h-6.67c.02,2.19,2.27,2.82,6.24,1.95.13-.61.27-1.23.42-1.95Zm242.8-10.26c.97,1.01,1.61,2.67,2.77.5.17-.31,1.04-.26,1.59-.34.73-.1,1.46-.15,2.19-.22l-.03-.73c-2.3-1.02-4.76.2-7.29-.26-.05.86-.09,1.55-.15,2.67.43-.75.63-1.1.93-1.62Zm-297.68,23.48c1.54-2.29,1.49-9.49,0-10.84v10.84Zm-15.28,42.6c1.66.1,3.03.18,4.4.28,1.72.13,1.82-.63,1.18-1.86h-5.48c-.03.54-.07,1.02-.1,1.58Zm400.7-2.13c.19-.01.37-.03.56-.04v-11.39h-.56v11.43Zm-403.17-7.67c-.09.01-.19.02-.28.04v9.95c.25-.01.5-.02.74-.03-.15-3.32-.31-6.64-.46-9.95Zm17.7-32.58v6.87c1.34-1.22,1.53-4.92,0-6.87Zm-.27,8.75c.06.93.11,1.75.2,3.02-.68-.62-.97-.88-1.46-1.33v4.6c.08,0,.16.02.24.03.13-.9.26-1.81.38-2.68.66-.16,1.21-.29,1.74-.42.19-1.22.36-2.35.55-3.58-.62.13-1.14.24-1.64.35Zm299.62-15.04c-1.89.43-2.08,2.24-.57,4.82.21-1.79.38-3.18.57-4.82Zm.17,22.92c-.62-.67-1.04-1.11-1.46-1.56-.4.48-1.14.97-1.12,1.42.04.6.67,1.17,1.04,1.75.43-.46.87-.91,1.53-1.62Zm-202.96-29.55c2.34,1.57,4.34,1.22,4.41,0h-4.41Zm248.77,17.23c.05,0,.1,0,.15,0v-12.63c-.05,0-.1,0-.15,0v12.63Zm3.19-4.72l-.6.02v6.83l.6-.02v-6.83Zm-3.8-8.23c-.1-.02-.21-.04-.31-.06v13.49c.1,0,.21,0,.31,0v-13.43Zm4.02-.57c-.18.01-.35.03-.53.04v7.82c.18,0,.35,0,.53.01v-7.87Zm-238.35-11.17c-.86.56-1.39.9-1.92,1.25,1.01.86,2.01,1.73,3.04,2.56.07.05.37-.2.97-.52-.98-.07-1.49-.1-2.09-.14v-3.14Zm90.67,39.01c-.03-.05-.05-.11-.08-.16h-10.37c0,.05,0,.11,0,.16h10.45Zm-93.68-37.53c-.01-.2-.03-.4-.04-.6-.48-.11-.97-.35-1.43-.3-.41.05-.78.43-1.17.66.41.26.81.7,1.24.74.45.04.93-.32,1.39-.5Zm65.89,64.1h4.23c-1.51-1.72-2.71-1.63-4.23,0Zm172.02-12c-.05.24-.13.41-.08.45,1.3,1.15,2.69,1.06,4.16-.13-1.36-.11-2.72-.22-4.07-.32Zm-351.62,8.92c2.85.99,3.98.72,3.88-.75-1.21.23-2.41.46-3.88.75Zm358.8-3.81c.05.15.09.3.14.45,2.09-.65,4.18-1.3,6.27-1.95-.05-.15-.09-.3-.14-.45-2.09.65-4.18,1.3-6.27,1.95Z"/>
  <path class="cls-1" d="m440.35,127.56c.34.88.67,1.76,1.01,2.64-.14.15-.28.31-.43.46-.56-.23-1.12-.45-1.69-.68.38-.79.76-1.58,1.14-2.37,0,0-.04-.06-.04-.06Z"/>
  <path class="cls-1" d="m225.26,73.69c-3.44.52-6.87-.38-10.32-.1-1.52.12-3.05-.02-4.58-.05-1.32-.03-1.65-.84-1.77-2.02-.47-4.65-.5-4.68,4.13-4.71,4.17-.02,8.34.08,12.51.04,1.6-.02,2.1.6,1.78,2.12-.24,1.14-.25,2.34-.57,3.45-.15.52-.81.89-1.23,1.32-.23-1.85-.46-3.7-.71-5.67-.8.1-1.33.17-1.97.25.21,1.51.41,2.92.62,4.33.71.35,1.42.7,2.12,1.05Zm-3.04-.64c0-1.43.13-2.66-.06-3.84-.08-.49-.86-.86-1.32-1.29-.29.54-.79,1.06-.82,1.61-.03.78.29,1.57.46,2.36-.18.03-.35.07-.53.1-.11-.9-.04-1.87-.37-2.68-.26-.63-.95-1.31-1.59-1.51-1.63-.52-3.31.72-5.02.05-.13-.05-.54.61-.58.65-.83-.36-1.58-.69-1.83-.8-.18,1.78-.34,3.43-.56,5.62,1.14-.55,1.93-.92,2.44-1.17,3.13,1.86,6.43.44,9.78.89Z"/>
  <path class="cls-1" d="m242.94,148.16c1.02-.39,2.1-.8,3.24-1.23.65,1.69-.89,1.45-1.75,1.48-3.26.12-6.51.12-9.77.14-2.08.02-4.17,0-6.26-.52,2.7-.42,5.39-.85,8.09-1.27.12-.29.24-.58.36-.87-.32-.11-.64-.22-.97-.32-.25-.07-.5-.12-.74-.57,1.45-.13,2.89-.26,4.34-.4.04.09.07.18.11.26-.52.21-1.04.42-1.56.62.03.15.06.3.09.46,1.09-.13,2.18-.3,3.27-.36.51-.03,1.35.02,1.49.31.25.49.07,1.2.07,2.26Z"/>
  <path class="cls-1" d="m65.7,64.05c.92-.11,1.83-.23,2.82-.35.25,1.46,2.8,2.53.98,4.08-1.45.32-2.57.56-3.8.83v-4.56Z"/>
  <path class="cls-1" d="m434.96,63.59c.18-1.21.35-2.41.58-3.93,1.02.1,1.99.19,2.48.24v4.8c-1.05-.4-2.06-.79-3.08-1.18l.03.05Z"/>
  <path class="cls-1" d="m54.29,99.53c-.23-1.85-.53-3.69-.63-5.55-.02-.32.86-.68,1.71-1.32q-.54,5.46,2.17,6.24c-1.05.18-2.19.38-3.32.57,0,0,.06.05.06.05Z"/>
  <path class="cls-1" d="m359.94,146.86h8.2c0,.25,0,.49.01.74-2.78-1.2-5.45,2.04-8.21-.74Z"/>
  <path class="cls-1" d="m432.75,106.53c.36.19,1.05.39,1.04.57-.05,1.72.54,3.55-1.04,5.09v-5.66Z"/>
  <path class="cls-1" d="m353.92,69.95c-4.89.39-9.78.79-14.67,1.18-.01-.39-.03-.79-.04-1.18,4.9,0,9.81,0,14.71,0,0,0,0,0,0,0Z"/>
  <path class="cls-1" d="m450.24,108.24v-9.9c.27,3.31,1.77,6.63-.09,9.95,0,0,.09-.05.09-.05Z"/>
  <path class="cls-1" d="m450.24,108.24s-.09.05-.09.05c.29.12.84.24.84.37.05,2.49.04,4.99.04,7.48h-.79v-7.9Z"/>
  <path class="cls-1" d="m219.71,142.2c2.29,0,4.58-.01,6.87-.02-.15.35-.3,1-.45,1-1.84.02-3.69-.02-5.52-.15-.32-.02-.6-.54-.9-.83Z"/>
  <path class="cls-1" d="m270.72,147.23c-2.16.28-4.31.55-6.47.83-.03-.26-.06-.52-.08-.79l6.49-.61c.02.19.04.38.07.58Z"/>
  <path class="cls-1" d="m449.31,91.43c.55.42,1.37.83,1.33,1.04-.37,1.62.9,3.84-1.33,4.86v-5.9Z"/>
  <path class="cls-1" d="m329.84,147.09c-1.57-.15-3.14-.3-4.71-.45.02-.26.04-.52.06-.77,1.58.15,3.17.3,4.75.44-.03.26-.06.52-.1.78Z"/>
  <path class="cls-1" d="m434.93,63.53c-.15.48-.31.95-.46,1.43-.22-.22-.43-.43-.65-.65-.37-.81-.74-1.62-1.18-2.58.53-.37,1.1-.79,1.71-1.22.2,1.04.41,2.06.61,3.09,0,0-.03-.05-.03-.05Z"/>
  <path class="cls-1" d="m434.34,117.66c.55-1.09.79-1.58,1.12-2.22.62.35,1.24.56,1.64.99.2.21.02,1.17-.06,1.18-.73.1-1.48.06-2.7.06Z"/>
  <path class="cls-1" d="m429.2,106.27c0,1.66.04,3.32-.05,4.98-.03.66-.36,1.31-.56,1.96-.19-.05-.37-.1-.56-.15.39-2.27.78-4.53,1.17-6.8,0,0,0,0,0,0Z"/>
  <path class="cls-1" d="m114.89,148.89c1.9.13,3.8.27,5.7.4l-.06.6c-1.89-.21-3.78-.43-5.68-.64.01-.12.02-.24.04-.36Z"/>
  <path class="cls-1" d="m134.43,149.67c1.91-.14,3.82-.27,5.74-.41.01.22.03.44.04.66-1.94.12-3.88.24-5.82.37.01-.21.03-.41.04-.62Z"/>
  <path class="cls-1" d="m106.01,106.55c-1.04.05-2.09.16-3.13.14-5.63-.15-11.26-.31-16.88-.53-1.03-.04-2.04-.33-3.03-.93,7.06.34,14.13.68,21.19,1.03l.05-.88c-1.65,0-3.3-.01-4.95,0-1.28.01-2.41-.06-3.06-1.51-.3-.66-1.11-1.14-1.77-1.59-1.98-1.32-2.04-1.71-.41-3.48.15-.16.38-.27.47-.45.8-1.45,2.03-2.75,3.5-1.53.87.72.81,2.57,1.17,3.91-.22.1-.45.2-.67.3,1.11.46,2.21.92,3.39,1.41,1.59-.87,3.52-1.52,3.22-4.08-.05-.38.63-1.2,1.01-1.22,1.36-.08,2.74.03,4.08.23.24.04.37.83.65,1.52,1.12-2.01,2.17-3.88,3.31-5.92-.21-.92-.5-2.15-.87-3.75,1.45-.12,2.81-.24,4.51-.38-1.14,4.13,3.13,8.11-1.2,11.56,2.61.47,1.58,2.44,1.69,3.85.14,1.73-1.42,1.74-2.47,1.77-2.33.07-4.68-.22-7.02-.18-.95.02-1.89.5-2.84.77,0,0,.06-.05.06-.05Z"/>
  <path class="cls-1" d="m206.5,106.59v-16.5h9.65c.06.81.17,1.66.16,2.5-.02,4.03-.12,8.05-.09,12.08.01,1.39-.35,2-1.85,1.94-2.55-.09-5.1-.03-7.87-.03Z"/>
  <path class="cls-1" d="m203.37,106.51h-9.61v-16.44h9.61v16.44Zm-.67-14.35s-.09,0-.13,0v11.67s.09,0,.13,0v-11.67Z"/>
  <path class="cls-1" d="m219.3,89.96h9.7v16.35h-9.7v-16.35Zm.88,8.95c-.37,6.54.29,7,6.7,6.54q-6.63.08-6.7-6.54Z"/>
  <path class="cls-1" d="m245.13,90.16h9.68v16.15h-9.68v-16.15Zm8.84,13.79c.05,0,.1,0,.15,0v-8.24c-.05,0-.1,0-.15,0v8.24Z"/>
  <path class="cls-1" d="m232.25,106.47v-16.43h9.63v16.43h-9.63Zm4.25-.95c-3.33-.14-3.36-.14-3.4-3.43-.04-2.99,0-5.99,0-8.98-.34,2.97-.34,5.94-.34,8.91,0,3.47.29,3.73,3.75,3.5Z"/>
  <path class="cls-1" d="m181.46,104v-14.15h8.75v16.51h-9.21v-13.74h.22v11.33c.08.02.16.04.24.06Z"/>
  <path class="cls-1" d="m258,89.81h9.85c0,5.1.04,10.13-.07,15.15,0,.43-.99,1.18-1.54,1.2-2.7.13-5.41.06-8.24.06v-16.41Zm8.41.93c-.22.06-.43.12-.65.19-.15,3.11-.32,6.22-.41,9.33-.01.38.45.78.69,1.17.29-.4.82-.8.84-1.21.09-2.62.1-5.25.06-7.87,0-.53-.35-1.06-.53-1.6Z"/>
  <path class="cls-1" d="m168.48,91.78c0,3.99-.06,7.98.08,11.97.02.53,1.04,1.38,1.67,1.46,2.43.29,4.9.33,7.25.46-.71.81-5.09,1-9.1.27v-16.43c2.84,0,5.46-.09,8.07.09.45.03,1.15,1.17,1.17,1.81.12,3.55.06,7.1-.27,10.66v-10.71c-.13,0-.25,0-.38,0v13.6c-2.45,0-4.69.09-6.91-.08-.4-.03-.99-1.13-1.01-1.75-.11-3.22-.07-6.44-.08-9.65,0-.56,0-1.12,0-1.68-.16,0-.32,0-.48,0Z"/>
  <path class="cls-1" d="m155.6,105.76v-16.56h9.01v16.56h-9.01Zm4.32-15.72c-.17,0-.33-.01-.5-.02v11.03c.17,0,.33,0,.5,0v-11.01Zm-3.79,1.06c-.09.02-.18.04-.27.07v10.98c.09,0,.18,0,.27,0v-11.05Z"/>
  <path class="cls-1" d="m152.18,88.58v16.87c-3.02-.23-5.91-.38-8.77-.73-.41-.05-1-1.04-1-1.59.01-4.44.12-8.89.29-13.33.02-.42.71-1.15,1.11-1.17,2.74-.1,5.49-.05,8.36-.05Zm-1.44,15.27c.27,0,.55-.01.82-.02-.23-4.72.1-9.46-.82-14.13v14.15Zm-7.05-13.73l-.36-.07v12.66c.12,0,.24,0,.36,0v-12.59Zm4.09,9.89c.06,0,.12,0,.19,0v-8.56h-.19v8.57Z"/>
  <path class="cls-1" d="m270.97,89.56h9.75v16.42h-9.75v-16.42Zm8.94,11.43c0-3.15.07-6.13-.07-9.1-.03-.53-.91-1.39-1.46-1.45-1.78-.19-3.6-.07-5.49-.07v10.62h7.02Z"/>
  <path class="cls-1" d="m293.73,105.76h-9.82v-16.52h9.82v16.52Zm-4.91-4.96v-10.88c-1.21.07-2.31.12-3.21.17v10.71h3.21Zm4.23-.04c0-2.87,0-5.48,0-8.1,0-2.9-.22-3.07-3.4-2.54v10.64h3.4Zm-.97,4.25l.05-.27h-6.14c0,.09,0,.18.01.27h6.09Z"/>
  <path class="cls-1" d="m309.71,88.37h9.92c0,5.06.03,10.16-.05,15.25,0,.4-.74,1.08-1.19,1.13-2.4.25-4.81.41-7.21.4-.49,0-1.39-.84-1.4-1.31-.1-5.03-.06-10.05-.06-15.48Zm1.04,12.2c1.03,0,1.95.18,2.74-.06.57-.17,1.37-.87,1.4-1.37.16-2.77.1-5.56.16-8.34.03-1.43-.82-1.67-1.98-1.71-1.22-.04-2.28.11-2.3,1.63-.04,3.2-.01,6.41-.01,9.84Zm5.12-.3h2.34v-11.22c-.18-.14-.35-.27-.53-.41-.6.46-1.71.91-1.73,1.4-.15,3.4-.08,6.8-.08,10.23Zm3.35-9.54c-.05.03-.11.06-.16.08v11.47c.24-3.64.24-7.28.24-10.92,0-.21-.05-.42-.07-.63Z"/>
  <path class="cls-1" d="m336.19,103.77c0-5.02-.05-9.99.07-14.95.01-.54.92-1.44,1.49-1.52,2.02-.27,4.09-.21,6.12-.38,1.4-.12,1.78.5,1.76,1.78-.07,4.31-.09,8.63-.11,12.94,0,1.29-.45,2.13-1.88,2.13-2.47,0-4.95,0-7.45,0Zm7.24-15.83c-.96-.05-1.75-.11-2.53-.12-3.77-.05-3.91.09-3.96,3.91-.01.87-.04,1.75-.03,2.62.09,6.42-1.14,5.88,6.01,5.54.13,0,.25-.13.51-.28v-11.67Zm1.84,1.86c-.08,0-.15,0-.23.01v11.08c.08,0,.15,0,.23,0v-11.09Z"/>
  <path class="cls-1" d="m296.99,88.98c3.31-.15,6.41-.29,9.82-.45.05,1.11.14,2.03.13,2.94-.07,3.87-.23,7.73-.25,11.6,0,1.55-.48,2.27-2.14,2.2-2.53-.09-5.07-.02-7.56-.02v-16.27Zm.63,11.55c2.6.02,5.2.04,7.8.06.12-1.95.32-3.89.36-5.84.12-6.28.67-5.31-5.52-5.27-1.79.01-2.48.73-2.46,2.49.02,2.85-.11,5.7-.18,8.55-.07.87-.33,1.79-.15,2.61.14.63.82,1.55,1.32,1.6,2.02.18,4.07.08,6.12.08,0-.2-.01-.4-.02-.59-1.01.07-2.01.16-3.02.2q-4.11.16-4.25-3.89Z"/>
  <path class="cls-1" d="m284.61,116.24c1.53,0,3.05-.07,4.57.04.51.03.99.5,1.48.76-.51.26-.99.7-1.52.76-1.52.17-3.05.19-4.58.27,0,.3,0,.6.01.89h6.79c.67,1.79.35,2.53-1.34,2.5-2.55-.05-5.1-.01-7.85-.01v-8.62h9.34c.52,1.55-.06,2.14-1.62,2.1-1.76-.05-3.52-.01-5.28-.01,0,.44-.01.89-.02,1.33Z"/>
  <path class="cls-1" d="m265.54,113.19c2.49,0,4.68-.19,6.82.05,2.11.24,2.72,1.98,2.79,3.86.1,2.63-1.08,4.48-3.25,4.7-2.07.21-4.19.04-6.36.04v-8.66Zm2.38,6.77c1.81-.56,3.28-.88,4.59-1.53.27-.13.17-2.03-.11-2.12-1.38-.47-2.88-.62-4.48-.91v4.56Z"/>
  <path class="cls-1" d="m201.87,113.43c2.59,0,4.85-.11,7.09.03,2.02.13,3.16,2.49,2.17,4.29-.31.56-.79,1.03-1.24,1.6.4.76.79,1.52,1.29,2.46-1.42.24-2.62.56-3.21-1.03-.65-1.77-1.92-1.99-3.66-1.4-.11.77-.22,1.6-.35,2.54h-2.1v-8.49Zm2.2,3.13c.14.24.29.47.43.71,1.15,0,2.32.08,3.46-.05.32-.04.56-.73.83-1.12-1.11-.18-2.23-.48-3.34-.49-.46,0-.92.62-1.38.96Z"/>
  <path class="cls-1" d="m306.17,116.63v-4.2h2.5c0,2.22.04,4.39-.03,6.55-.02.65-.37,1.84-.55,1.84-.85-.01-1.88-.13-2.52-.63-1.42-1.11-2.65-2.47-4.17-3.93v4.91c-.85.1-1.48.17-2.35.27v-8.6c1.31-.89,2.47-.28,3.48.94.93,1.13,1.81,2.29,2.71,3.44.31-.2.61-.39.92-.59Z"/>
  <path class="cls-1" d="m155.22,121.16v-8.44c2.38,0,4.61-.14,6.82.04,1.88.16,2.82,2.13,2.58,4.85-.19,2.21-1.6,3.91-3.38,3.88-1.96-.03-3.91-.21-6.01-.33Zm2.38-1.8c1.77-.53,3.18-.81,4.43-1.43.28-.14.19-1.99-.08-2.09-1.33-.49-2.78-.65-4.34-.96v4.48Z"/>
  <path class="cls-1" d="m250.05,113.45c2.41,0,4.67-.12,6.91.03,2.1.14,3.37,1.97,2.32,3.67-1,1.63-1.08,2.91.13,4.48-1.48.39-2.66.61-3.3-.91-.73-1.72-2-1.87-3.69-1.34-.08.74-.16,1.51-.26,2.43-.67.05-1.29.09-2.11.15v-8.52Zm1.78,4.12c1.94,0,3.11.12,4.22-.07.37-.06.61-.92.91-1.42-1.25-.16-2.5-.43-3.74-.4-.36,0-.7.91-1.39,1.89Z"/>
  <path class="cls-1" d="m195.88,113.3c-.15,2.36-.2,4.4-.42,6.42-.17,1.49-1.03,2.37-2.66,2.3-1.46-.06-2.93-.05-4.39-.06-1.5-.01-2.35-.72-2.37-2.25-.02-2.04,0-4.07,0-6.25.92-.06,1.54-.1,2.15-.14.15.3.33.49.33.68,0,.88-.03,1.76-.06,2.64-.09,2.85,1.1,3.79,3.84,2.9.45-.14.91-.89.98-1.41.19-1.51.18-3.04.26-4.72.76-.03,1.38-.06,2.35-.11Z"/>
  <path class="cls-1" d="m233.72,121.71c1.1-2.45,2.12-4.93,3.35-7.31.25-.49,1.26-.8,1.93-.81.57,0,1.46.4,1.67.87,1.05,2.39,1.92,4.85,2.85,7.28-.14.19-.27.39-.41.58-.83-.42-1.62-1.08-2.49-1.21-1.34-.19-2.76-.15-4.09.07-.8.13-1.51.81-2.26,1.24-.18-.24-.37-.48-.55-.72Z"/>
  <path class="cls-1" d="m225.45,117.78h1.9c.23,1.8.62,3.43-1.72,4.09-2.87.81-5.86-.14-7.08-2.44-.92-1.73-.14-4.3,1.7-5.61,1.87-1.33,4.89-.95,6.84.95-.37.42-.75.83-1.11,1.24-2.69-1.37-4.35-1.28-4.97.35-.51,1.34-.27,2.66,1.17,3.36,1.5.72,2.67,0,3.27-1.94Z"/>
  <path class="cls-1" d="m324.32,117.49c.57-.04,1.18-.23,1.7-.09.88.25,1.7.97,2.55.99.68.01,1.37-.73,2.06-1.14-.52-.51-1-1.05-1.56-1.5-.25-.2-.65-.22-1.21-.39.58-.68,1.03-1.2,1.65-1.93h-3.89c.22-2.23,1.54-2.56,6.9-1.81-.16.73-.34,1.44-.47,2.16-.07.38-.23.92-.05,1.13,1.37,1.62,1.06,3.11-.35,4.44-1.34,1.27-3.87,1.33-5.49.24-.6-.41-1.18-.85-1.77-1.28-.03-.28-.06-.55-.09-.83Z"/>
  <path class="cls-1" d="m331.67,87.83c-.06.46-.12.95-.24,1.8-.34-.41-.48-.71-.61-.71-2.1,0-4.21.02-6.31.12-.17,0-.46.59-.46.91-.03,3.42-.02,6.84-.02,10.38,1.14.11,2.07.19,3,.28-.27,3.7-.84,4.21-4.03,3.72,0-5.05-.04-10.09.07-15.13.01-.46.96-1.26,1.51-1.29,2.26-.15,4.53-.06,7.09-.06Z"/>
  <path class="cls-1" d="m175.95,113.18h2.59c-.1,2.32-.18,4.55-.32,6.78-.02.33-.24.69-.46.96-.66.84-4.81,1.21-6.03.49-1.47-.87-1.37-2.22-.83-4.28.91.65,1.55,1.23,2.29,1.58.6.29,1.36.48,1.99.37.32-.06.7-.85.73-1.33.1-1.44.03-2.88.03-4.57Z"/>
  <path class="cls-1" d="m328.3,103.94c.76-1.2,1.54-2.38,2.27-3.6.2-.34.33-.75.41-1.14.47-2.31.92-4.62,1.38-6.93.19.03.37.06.56.09v11.68c-1.46.13-2.79.25-4.13.38-.16-.16-.32-.32-.48-.48Z"/>
  <path class="cls-1" d="m318.32,125.12c-3-.27-5.99-.53-8.99-.8,0-.1-.02-.2-.02-.29,3.12-.2,6.24-.4,9.76-.62-.37.8-.58,1.28-.81,1.76,0,0,.05-.04.05-.04Z"/>
  <path class="cls-1" d="m228.97,125.34h12.87c0,.11,0,.22,0,.33h-12.86c0-.11,0-.22,0-.33Z"/>
  <path class="cls-1" d="m226.33,125.55c-1.26,1.46-2.59,1.51-3.9,0h3.9Z"/>
  <path class="cls-1" d="m160.03,124.9h9.19c0,.19,0,.38-.01.57-2.96-.18-5.91-.37-9.18-.57Z"/>
  <path class="cls-1" d="m263.36,125.41h-9.74c0-.05,0-.11,0-.16h9.74c0,.05,0,.11,0,.16Z"/>
  <path class="cls-1" d="m118.7,93.25c-.19-2.58-.38-5.16-.58-7.74.19,0,.39-.02.58-.02,0,2.59,0,5.18,0,7.78,0,0,0-.01,0-.01Z"/>
  <path class="cls-1" d="m237.62,54.28c3.14.41,5.55,1.9,5.61,3.74.06,1.72-2.15,3.4-5.15,3.52-1.54.06-3.24-.23-4.63-.88-2.2-1.04-2.3-3.37-.23-4.7,1.3-.83,2.92-1.14,4.4-1.69Zm1.78,5.42c-.65-1.02-1.29-2.03-2.27-3.58-.62,1.79-1.01,2.94-1.31,3.81,1.03.13,1.83.3,2.62.3.3,0,.61-.38.9-.6.83-.18,1.66-.37,2.62-.58-.37-.85-.73-1.67-1.09-2.48-.2,0-.4,0-.6-.01-.29,1.05-.58,2.1-.87,3.15Z"/>
</svg>