<?xml version="1.0" encoding="UTF-8"?>
<svg id="Layer_2" data-name="Layer 2" xmlns="http://www.w3.org/2000/svg" viewBox="0 0 197.83 235.45">
  <defs>
    <style>
      .cls-1 {
        fill: none;
        stroke: #000;
        stroke-miterlimit: 10;
        stroke-width: 1.06px;
      }

      .cls-2, .cls-3 {
        stroke-width: 0px;
      }

      .cls-3 {
        fill: #fff;
      }
    </style>
  </defs>
  <polygon class="cls-2" points="81.6 23.43 81.6 27.74 88.47 27.74 88.47 23.43 86.58 25.59 85.03 23.43 83.54 25.59 81.6 23.43"/>
  <polygon class="cls-2" points="99.84 23.43 99.84 27.74 106.71 27.74 106.71 23.43 104.82 25.59 103.27 23.43 101.78 25.59 99.84 23.43"/>
  <polygon class="cls-2" points="90.97 27.08 90.97 31.39 97.83 31.39 97.83 27.08 95.95 29.23 94.4 27.08 92.9 29.23 90.97 27.08"/>
  <path class="cls-1" d="m85.03,26.03v5.78c0,1.12.91,2.03,2.03,2.03h14.17c1.12,0,2.03-.91,2.03-2.03v-5.78"/>
  <line class="cls-1" x1="94.4" y1="30.52" x2="94.4" y2="42.02"/>
  <polyline class="cls-1" points="103.77 70.1 95.59 59.49 101.18 51.35 94.4 42.09 87.62 51.35 93.21 59.49 85.03 70.1"/>
  <path class="cls-2" d="m131.84,201.25v-64.96s-23.5-5.55-23.5-9.05,7.01-4.53,7.01-4.53v-5.98s-7.74,0-7.74,0v-38.68s8.32-4.09,8.32-4.09v-2.34s-21.53-4.67-21.53-4.67l-21.53,4.67v2.34l8.32,4.09v38.68h-7.74v5.98s7.01,1.02,7.01,4.53-23.5,9.05-23.5,9.05v64.96"/>
  <polyline class="cls-1" points="56.96 136.29 96.79 129.3 131.84 136.29"/>
  <line class="cls-1" x1="96.79" y1="189.7" x2="96.79" y2="129.3"/>
  <polygon class="cls-3" points="87.95 76.63 87.95 112.78 84.64 112.78 84.64 77.34 87.95 76.63"/>
  <polygon class="cls-3" points="93.77 75.37 93.77 112.78 90.47 112.78 90.47 76.08 93.77 75.37"/>
  <polygon class="cls-3" points="99.6 76.36 99.6 112.78 96.3 112.78 96.3 75.64 99.6 76.36"/>
  <polygon class="cls-3" points="105.43 77.62 105.43 112.78 102.13 112.78 102.13 76.9 105.43 77.62"/>
  <polygon class="cls-3" points="87.95 76.63 87.95 79.9 84.64 79.9 84.64 77.34 87.95 76.63"/>
  <polygon class="cls-3" points="90.47 76.08 93.77 75.37 93.77 79.9 90.47 79.9 90.47 76.08"/>
  <polygon class="cls-3" points="96.3 75.64 99.6 76.36 99.6 79.9 96.3 79.9 96.3 75.64"/>
  <polygon class="cls-3" points="105.43 77.62 105.43 79.9 102.13 79.9 102.13 76.9 105.43 77.62"/>
</svg>