<?xml version="1.0" encoding="UTF-8"?>
<svg id="Layer_2" data-name="Layer 2" xmlns="http://www.w3.org/2000/svg" viewBox="0 0 221.69 191.69">
  <defs>
    <style>
      .cls-1 {
        stroke-width: 0px;
      }

      .cls-2 {
        fill: none;
        stroke: #000;
        stroke-miterlimit: 10;
        stroke-width: 3.53px;
      }
    </style>
  </defs>
  <path class="cls-1" d="m44.62,94.06h-5.46l5.46,16.93h18.25l11.67,2.82,14.11-1.51,2.86,10.6c.71,2.64.54,5.44-.48,7.98l-4.26,10.58h8.09l9.65-17.06c1.07-1.89,1.64-4.03,1.64-6.21v-4.02l29.73,2.16c2.61.19,5.24-.07,7.77-.76l14.06-3.85,13,9.41c.86.62,1.81,1.1,2.82,1.42l.33.1c3.59,1.14,6.23,4.21,6.82,7.93l1.86,11.8h7.15v-21.4c0-1.82-.51-3.6-1.48-5.13l-.64-1.02c-1.73-2.76-1.95-6.21-.59-9.18l7.6-16.51-3.39-16.18s9.37,1.62,8.57-5.04c-.8-6.65-6.59-6.59-6.59-6.59,0,0,5.67,4.13,2.16,5.91s-5.48,1.66-7.82-1.66-17.43-17.55-30.43-16.26-55.06,7.14-58.94,6.9-8.53-.86-14.81,1.79-15.64,5.17-15.64,5.17c0,0-14.17-6.9-18.29-6.59,0,0,8.31,10.16,9.05,12.19s-6.96,22.72-13.83,25.25Z"/>
  <line class="cls-2" x1="206.51" y1="103.26" x2="30.5" y2="103.26"/>
</svg>