<?xml version="1.0" encoding="UTF-8"?>
<svg id="Layer_2" data-name="Layer 2" xmlns="http://www.w3.org/2000/svg" xmlns:xlink="http://www.w3.org/1999/xlink" viewBox="0 0 500 500">
  <defs>
    <style>
      .cls-1 {
        mask: url(#mask);
      }

      .cls-2 {
        filter: url(#luminosity-invert);
      }

      .cls-3 {
        stroke-width: 3.8px;
      }

      .cls-3, .cls-4 {
        fill: none;
        stroke: #221f20;
        stroke-miterlimit: 10;
      }

      .cls-4 {
        stroke-width: 2px;
      }

      .cls-5, .cls-6, .cls-7, .cls-8 {
        stroke-width: 0px;
      }

      .cls-6 {
        fill: #f7d903;
      }

      .cls-7 {
        fill: #a0d8eb;
      }

      .cls-8 {
        fill: #fff;
      }
    </style>
    <filter id="luminosity-invert" x="-21.29" y="0" width="551.99" height="527.96" color-interpolation-filters="sRGB" filterUnits="userSpaceOnUse">
      <feColorMatrix result="cm" values="-1 0 0 0 1 0 -1 0 0 1 0 0 -1 0 1 0 0 0 1 0"/>
    </filter>
    <mask id="mask" x="-21.29" y="0" width="551.99" height="527.96" maskUnits="userSpaceOnUse">
      <g class="cls-2">
        <g>
          <rect class="cls-5" width="500" height="500"/>
          <path class="cls-8" d="m446.66,163.02l-32.08,5.86-22.51-2.93-119.95,31.61s-51.71,26.52-35.72,86.34l7.35,26.21,124.58,74.01.31,6.48-12.03,16.5,5.24,5.4,17.58-20.66,73.39,64.76,77.88,66.27-7.45-377.79-76.59,17.96Z"/>
          <path class="cls-8" d="m203.79,279.35l14.38-19.7,16.16-59.87c1.13-4.18-1.43-8.46-5.65-9.44l-79.03-18.43c-2.77-.65-5.67.3-7.53,2.45l-3.95,4.57-85.87,27.89-17.02,11.95c-1.34.94-2.34,2.29-2.86,3.84h0c-.87,2.6-.28,5.47,1.55,7.52l38.87,43.48,124.21,8.87c2.63.19,5.17-.99,6.72-3.12Z"/>
          <path class="cls-8" d="m31.3,122.13l14.84-4.58c4.6-1.42,7.48-5.99,6.77-10.76l-.14-.92c-.69-4.66,2.04-9.15,6.5-10.67l52.15-17.77c4.11-1.4,8.65.08,11.13,3.64l3.09,4.42c1.86,2.66,4.93,4.22,8.17,4.16l34.07-.64,20.92,10.64,9.91-2.57,2.49-12.19c.52-2.53,2.02-4.75,4.17-6.18l29.02-19.22c1.3-.86,2.79-1.4,4.33-1.56l26.77-2.9c3.01-.33,5.99.76,8.09,2.94l5.49,5.72,110.08,2.94,2.92-3.05c3.04-3.18,7.83-3.93,11.7-1.83l26.88,14.59c3.14,1.71,5.1,5,5.1,8.57v4.47l15.78,8.44,4.77-5.14,5.5,1.47,2.2,21.28,5.5,4.4-5.5,23.12-16.88,2.11-17.98-2.47-16.88,4.4.14.67c1.12,5.43-2.51,10.71-7.98,11.6h0c-3.53.58-7.1-.83-9.28-3.66l-2.69-3.48-109.24,34.14c-1.52.47-3.13.57-4.69.28l-62.94-11.67-19.08-11.74-99.81-4.77-15.61,5.74c-1.55.57-3.22.74-4.86.51l-37.87-5.51-11.11-11.19c-1.81-1.83-2.83-4.3-2.83-6.87v-9.6c0-4.28,2.79-8.06,6.88-9.32Z"/>
          <polygon class="cls-8" points="-2.63 274.55 20.84 274.55 32.04 286.59 64.18 301.04 51.54 333.96 64.18 341.36 94.28 316.08 280.88 381.09 346.49 451.14 392.84 522.86 177.35 527.96 -21.29 520.14 -2.63 274.55"/>
        </g>
      </g>
    </mask>
  </defs>
  <g class="cls-1">
    <rect class="cls-7" width="500" height="500"/>
  </g>
  <polyline class="cls-3" points="244.88 -4.85 309.04 102.24 380.02 367.09 295.97 451.14 250 488.9"/>
  <line class="cls-3" x1="372.95" y1="340.72" x2="505.36" y2="320.19"/>
  <circle class="cls-3" cx="385.03" cy="315.01" r="12.08"/>
  <line class="cls-3" x1="378.59" y1="309.72" x2="391.38" y2="309.72"/>
  <line class="cls-3" x1="385.03" y1="309.72" x2="385.03" y2="321.02"/>
  <polyline class="cls-3" points="344.4 234.16 333.98 234.16 311.71 224.45 273.2 227.63 273.2 212.36 303.43 194.86 361.98 184.99 383.36 174.47 415.79 174.63 504.15 152.98"/>
  <polyline class="cls-4" points="273.2 212.36 268.75 181.17 277.66 172.9 277.66 151.9 266.84 142.67 266.84 128.36 257.32 127.13 253.68 116.45 250.61 114.86 250.61 110.54 241.98 95.2 250 92.02 256.07 92.58 250.61 110.54"/>
  <path class="cls-4" d="m241.98,95.2l-7.73,3.98s-1.82,2.05-2.05,5.57,0,9.89,0,9.89l18.41.23"/>
  <polyline class="cls-4" points="277.66 165.19 236.39 168.49 230.5 167.35 234.36 151.45 232.66 122.7 255.33 121.28"/>
  <line class="cls-4" x1="232.2" y1="114.63" x2="232.66" y2="122.7"/>
  <path class="cls-4" d="m230.5,167.35l-19.4-4.07-3.2-50.23-16.94,1.42c-1.24.1-2.48-.15-3.57-.74l-12.93-6.96"/>
  <polyline class="cls-4" points="200.72 100.88 220.45 107.92 221.47 111.9 207.89 113.05"/>
  <polyline class="cls-4" points="208.3 119.49 226.09 118.66 224.17 114.07 221.47 111.9"/>
  <polyline class="cls-4" points="233.78 83.19 228.39 86.78 224.17 114.07"/>
  <polyline class="cls-4" points="366.77 317.65 302.07 332.42 287.72 287.41 306.29 284.88 300.95 260.12 282.1 264.06 273.2 227.63 263.08 230.74 253.34 231.44 251.11 230.74 241.98 226.98 225.64 221.28"/>
  <polyline class="cls-4" points="315.29 227.63 322.05 254.49 300.95 260.12 296.73 237.9"/>
  <polyline class="cls-4" points="338.64 234.16 342.86 250 322.05 254.49 324.82 266.38"/>
  <polyline class="cls-4" points="304.88 197.38 309.39 214.83 337.89 209.87"/>
  <polyline class="cls-3" points="336.88 206.11 358.9 202.73 363.4 191.48 361.98 184.99"/>
  <path class="cls-4" d="m118.04,79.69l-5.6-1.4-54.55,22.59v5.89l-1.96,12.72-9.79,6.64-15.39,6.71-2.24,3v4.12l23.24,17.74,11.41,2.96,17.64-2.96,31.58-3.27s75.52,3.17,75.52,3.49,23.19,5.36,23.19,5.36l-24.56-13.6-34.54-28.89-24.19-25.92-17.32-.42-13.2,2.01-2.53-6.44-5.49,1.58-1.27,1.69,1.48,5.6-4.44,2.53-.63,2.75h-4.86l-5.18,4.33-5.39,9.93"/>
  <polyline class="cls-4" points="79.54 104.16 79.54 101.09 82.81 99.93 85.03 101.41 89.47 98.87 97.28 96.44"/>
  <polygon class="cls-4" points="240.86 272.84 259.82 268.17 264.59 293.9 250 298.15 247.11 298.15 240.86 272.84"/>
  <polyline class="cls-4" points="240.86 272.84 236.39 250 240.86 233.53 249.3 232.97 251.11 230.74 253.34 231.44 259.82 268.17 273.2 266.23 275.47 280.71"/>
  <polyline class="cls-4" points="263.08 230.74 267.18 252.92 272.19 260.71 272.19 266.38"/>
  <polyline class="cls-4" points="306.29 284.88 315.04 297.09 323.83 308.8 345.34 302.94 349.08 299.69 354.02 287.28 357.2 286.51"/>
  <path class="cls-4" d="m357.2,283.55l-16.69,5.13-10.43-.74-8.04,1.21,3.1,10.98h-3.1l-3.71-4.94c0-2.53-4.83-20.86-4.83-20.86l2.42-5.27,8.89-2.68h16.69l3.62,16.87"/>
  <path class="cls-6" d="m239.24,71.07c-5,0-9.05,4.05-9.05,9.05s9.05,17.69,9.05,17.69c0,0,9.05-12.69,9.05-17.69s-4.05-9.05-9.05-9.05Zm0,15.16c-3.43,0-6.21-2.78-6.21-6.21s2.78-6.2,6.21-6.2,6.21,2.77,6.21,6.2-2.78,6.21-6.21,6.21Z"/>
  <polyline class="cls-4" points="281.7 290.56 288.13 288.68 277.5 291.78 276.07 292.99 276.84 300.35 283.43 305.51 289.65 305.18 293.15 304.43"/>
  <line class="cls-4" x1="282.1" y1="264.06" x2="287.72" y2="287.41"/>
</svg>